<?xml version="1.0" standalone="no"?>
<!DOCTYPE svg PUBLIC "-//W3C//DTD SVG 20010904//EN"
 "http://www.w3.org/TR/2001/REC-SVG-20010904/DTD/svg10.dtd">
<svg version="1.0" xmlns="http://www.w3.org/2000/svg"
 width="512.000000pt" height="512.000000pt" viewBox="0 0 512.000000 512.000000"
 preserveAspectRatio="xMidYMid meet">
<metadata>
Created by potrace 1.14, written by Peter Selinger 2001-2017
</metadata>
<g transform="translate(0.000000,512.000000) scale(0.100000,-0.100000)"
fill="#000000" stroke="none">
<path d="M639 5116 c-2 -2 -24 -7 -48 -11 -150 -22 -330 -134 -445 -275 -37
-46 -95 -167 -118 -245 l-23 -80 0 -1930 c0 -1750 2 -1984 21 -2042 84 -263
270 -441 534 -512 74 -20 98 -20 2020 -18 l1945 2 70 24 c253 85 418 252 497
501 l23 75 0 1955 0 1955 -23 75 c-78 248 -245 416 -497 501 l-70 24 -1941 3
c-1067 1 -1942 0 -1945 -2z"/>
</g>
</svg>
